<svg width="512" height="512" viewBox="0 0 512 512" fill="none" xmlns="http://www.w3.org/2000/svg">
  <rect width="512" height="512" fill="#000000"/>
  <circle cx="256" cy="200" r="60" fill="#FFD700"/>
  <circle cx="256" cy="200" r="40" fill="#FFA500"/>
  <path d="M256 120L256 80M256 320L256 280M336 200L376 200M136 200L176 200M315 141L345 111M167 259L197 229M315 259L345 289M167 141L197 171" stroke="#FFD700" stroke-width="8" stroke-linecap="round"/>
  <rect x="120" y="320" width="272" height="120" rx="8" fill="#FFFFFF"/>
  <rect x="140" y="340" width="120" height="16" rx="4" fill="#E0E0E0"/>
  <rect x="140" y="370" width="232" height="12" rx="4" fill="#F0F0F0"/>
  <rect x="140" y="395" width="180" height="12" rx="4" fill="#F0F0F0"/>
  <rect x="140" y="420" width="80" height="10" rx="4" fill="#D0D0D0"/>
</svg>
